Coordinates
version=1
nRows=18
nColumns=22
inDegrees=yes

Units are S.I. units (second, meters, Newtons, ...)
If the header above contains a line with 'inDegrees', this indicates whether rotational values are in degrees (yes) or radians (no).

endheader
time	pelvis_tilt	pelvis_list	pelvis_rotation	pelvis_tx	pelvis_ty	pelvis_tz	hip_flexion_r	hip_adduction_r	hip_rotation_r	knee_angle_r	ankle_angle_r	subtalar_angle_r	hip_flexion_l	hip_adduction_l	hip_rotation_l	knee_angle_l	ankle_angle_l	subtalar_angle_l	lumbar_extension	lumbar_bending	lumbar_rotation
      4.70000000	      1.67100453	     -3.54842892	      1.36273090	      0.59764564	      1.01585830	     -0.24400126	      7.39393584	      7.84068826	     -2.83070019	    -17.19563731	      6.89028004	     -3.03547421	     18.50217989	     -6.12047916	     -2.10363129	    -42.36712291	      9.99513402	      4.16595950	    -13.64405350	      5.51059626	      8.96474320
      4.71000000	      1.75683007	     -3.48582484	      1.29901839	      0.60056178	      1.01619377	     -0.24416177	      7.08876750	      7.78352344	     -2.68148619	    -17.15495840	      7.02300897	     -2.99414843	     18.27955931	     -5.81591892	     -1.84308594	    -41.32346168	     10.11661500	      4.26889537	    -13.70896892	      5.44489163	      8.97682008
      4.72000000	      1.79190319	     -3.40835675	      1.20878212	      0.60345894	      1.01641869	     -0.24432124	      6.85762708	      7.70238583	     -2.56584497	    -17.14905625	      7.17726588	     -2.97268076	     18.06185206	     -5.50597853	     -1.62939974	    -40.28052006	     10.24373562	      4.39551249	    -13.70182379	      5.35325217	      8.99281318
      4.73000000	      1.86079068	     -3.35025172	      1.10243791	      0.60634627	      1.01668251	     -0.24447660	      6.57758638	      7.64468463	     -2.41314061	    -17.11937161	      7.31085718	     -2.94548037	     17.75762151	     -5.23083720	     -1.44795577	    -39.23480726	     10.35802000	      4.58416993	    -13.72627438	      5.27924412	      8.99848959
      4.74000000	      1.92114277	     -3.30730544	      0.98241382	      0.60922423	      1.01690409	     -0.24463225	      6.30352012	      7.60149545	     -2.25785858	    -17.08337154	      7.43532710	     -2.92352075	     17.41930127	     -4.98859523	     -1.31348520	    -38.19667261	     10.47576431	      4.80471846	    -13.72874511	      5.21803789	      8.99198996
      4.75000000	      1.96277688	     -3.26223128	      0.84048442	      0.61208986	      1.01706502	     -0.24478183	      6.05184918	      7.55065600	     -2.12018467	    -17.04949811	      7.57156630	     -2.91012405	     17.05349536	     -4.76479947	     -1.24531834	    -37.16178717	     10.60069338	      5.02560472	    -13.70033533	      5.14728452	      8.97543173
      4.76000000	      2.01861088	     -3.24234259	      0.69614262	      0.61494197	      1.01721255	     -0.24493974	      5.77847686	      7.52708743	     -1.96887665	    -17.00359481	      7.69452423	     -2.89806667	     16.63625464	     -4.58699469	     -1.22605442	    -36.14395724	     10.72067802	      5.26400227	    -13.67848082	      5.10062166	      8.94534602
      4.77000000	      2.06598620	     -3.24416574	      0.54614293	      0.61777952	      1.01730476	     -0.24510376	      5.51284757	      7.52415087	     -1.82375673	    -16.95379415	      7.81368999	     -2.89041941	     16.19766842	     -4.45325383	     -1.26715395	    -35.15383372	     10.82822042	      5.47410634	    -13.63612136	      5.07674523	      8.89985650
      4.78000000	      2.11029608	     -3.27139092	      0.39000312	      0.62060737	      1.01734950	     -0.24527799	      5.24451689	      7.54559621	     -1.68102701	    -16.89194478	      7.92770468	     -2.88582980	     15.73355123	     -4.36574309	     -1.36560828	    -34.19484977	     10.90528220	      5.63294377	    -13.58027637	      5.07761681	      8.84484013
      4.79000000	      2.14373392	     -3.32199968	      0.23209052	      0.62342362	      1.01733406	     -0.24545597	      4.98486991	      7.59048821	     -1.53784723	    -16.82164621	      8.03696788	     -2.88417684	     15.25671827	     -4.32159944	     -1.51766964	    -33.27378131	     10.94233426	      5.70695019	    -13.50170063	      5.10125988	      8.77690861
      4.80000000	      2.17570367	     -3.39766654	      0.07105499	      0.62623219	      1.01727567	     -0.24562970	      4.72079238	      7.66003698	     -1.40210270	    -16.73740817	      8.14406277	     -2.88337208	     14.75818322	     -4.32361612	     -1.72931544	    -32.39087881	     10.92226975	      5.67546848	    -13.41417400	      5.14622609	      8.70325028
      4.81000000	      2.20376311	     -3.49462732	     -0.09280807	      0.62905145	      1.01716762	     -0.24580866	      4.45661405	      7.74949136	     -1.26698091	    -16.64569433	      8.25033402	     -2.88188918	     14.24129056	     -4.36399256	     -1.99145221	    -31.54923855	     10.85367611	      5.51215121	    -13.30915169	      5.21040000	      8.61955862
      4.82000000	      2.22518688	     -3.61192392	     -0.25603111	      0.63183728	      1.01701009	     -0.24600009	      4.20530659	      7.85731253	     -1.13901263	    -16.55763433	      8.35693071	     -2.87822115	     13.71401174	     -4.43952045	     -2.30126266	    -30.74662750	     10.75107553	      5.20328738	    -13.19484676	      5.29501257	      8.53005547
      4.83000000	      2.24920125	     -3.74900312	     -0.39675720	      0.63462480	      1.01681795	     -0.24623437	      3.94654054	      7.98164341	     -1.03481175	    -16.45885739	      8.46182586	     -2.86750929	     13.17161373	     -4.54157827	     -2.62639628	    -29.98570674	     10.65070586	      4.70031985	    -13.07288586	      5.40232161	      8.38784661
      4.84000000	      2.24247925	     -3.89136050	     -0.57092669	      0.63738872	      1.01655583	     -0.24641757	      3.73575738	      8.11163469	     -0.91261793	    -16.38660253	      8.57785330	     -2.85793747	     12.63825986	     -4.66625006	     -3.01433476	    -29.25087137	     10.56448266	      4.16944383	    -12.91084152	      5.49936854	      8.30482049
      4.85000000	      2.24367030	     -4.04291248	     -0.71539900	      0.64012683	      1.01628828	     -0.24667471	      3.51412486	      8.24688306	     -0.81186087	    -16.30576591	      8.69542637	     -2.84102884	     12.08884144	     -4.79766555	     -3.39705155	    -28.54240536	     10.52899757	      3.50663596	    -12.75204403	      5.61217192	      8.16644929
      4.86000000	      2.23803305	     -4.19157049	     -0.83571860	      0.64281232	      1.01600733	     -0.24700665	      3.30627429	      8.37438712	     -0.72866954	    -16.23057668	      8.81067556	     -2.81893091	     11.53961401	     -4.92070610	     -3.76716988	    -27.84487380	     10.55537755	      2.78665335	    -12.58290728	      5.72583929	      7.98427502
      4.87000000	      2.22511084	     -4.33336781	     -0.95690355	      0.64545275	      1.01572495	     -0.24736285	      3.11271230	      8.49330707	     -0.64468015	    -16.16390573	      8.93817321	     -2.79634861	     10.98557369	     -5.03263824	     -4.12703144	    -27.14791738	     10.66503547	      2.08673981	    -12.40235147	      5.82639568	      7.80885554
